<svg xmlns="http://www.w3.org/2000/svg" xmlns:xlink="http://www.w3.org/1999/xlink" contentStyleType="text/css" data-diagram-type="CLASS" height="373px" preserveAspectRatio="none" style="width:2045px;height:373px;background:#FFFFFF;" version="1.1" viewBox="0 0 2045 373" width="2045px" zoomAndPan="magnify"><defs/><g><!--class AbstractionDimension--><g id="elem_AbstractionDimension"><rect codeLine="12" fill="#FFFFFF" height="78.0293" id="AbstractionDimension" rx="2.5" ry="2.5" style="stroke:#2688D4;stroke-width:1;" width="181.3574" x="1482.56" y="288.06"/><ellipse cx="1495.56" cy="302.06" fill="#FFFFFF" rx="9" ry="9" style="stroke:#000000;stroke-width:1;"/><path d="M1495.4233,297.4081 L1494.2695,302.4799 L1496.5854,302.4799 Z M1493.9291,295.1669 L1496.9257,295.1669 L1500.2709,307.56 L1497.8222,307.56 L1497.0585,304.497 L1493.7797,304.497 L1493.0327,307.56 L1490.5839,307.56 Z " fill="#000000"/><text fill="#000000" font-family="Verdana" font-size="14" font-style="italic" lengthAdjust="spacing" textLength="153.3574" x="1507.56" y="307.6279">AbstractionDimension</text><line style="stroke:#2688D4;stroke-width:1;" x1="1483.56" x2="1662.9174" y1="316.06" y2="316.06"/><ellipse cx="1493.56" cy="330.0673" fill="transparent" rx="3" ry="3" style="stroke:#000000;stroke-width:1;"/><text fill="#000000" font-family="Verdana" font-size="14" lengthAdjust="spacing" textLength="84.6426" x="1500.56" y="334.1352">label: string</text><ellipse cx="1493.56" cy="347.082" fill="transparent" rx="3" ry="3" style="stroke:#000000;stroke-width:1;"/><text fill="#000000" font-family="Verdana" font-size="14" lengthAdjust="spacing" textLength="117.2295" x="1500.56" y="351.1498">comment: string</text><line style="stroke:#2688D4;stroke-width:1;" x1="1483.56" x2="1662.9174" y1="358.0893" y2="358.0893"/></g><!--class Person--><g id="elem_Person"><rect codeLine="17" fill="#FFFFFF" height="78.0293" id="Person" rx="2.5" ry="2.5" style="stroke:#2688D4;stroke-width:1;" width="141.2295" x="942.62" y="288.06"/><ellipse cx="985.7811" cy="302.06" fill="#FFFFFF" rx="9" ry="9" style="stroke:#000000;stroke-width:1;"/><path d="M988.2543,308.2031 Q987.6732,308.5019 987.0341,308.6513 Q986.3949,308.8007 985.6893,308.8007 Q983.1825,308.8007 981.8627,307.1489 Q980.5429,305.497 980.5429,302.3759 Q980.5429,299.2465 981.8627,297.5947 Q983.1825,295.9428 985.6893,295.9428 Q986.3949,295.9428 987.0424,296.0922 Q987.6898,296.2416 988.2543,296.5405 L988.2543,299.2631 Q987.6234,298.6821 987.0299,298.4123 Q986.4364,298.1425 985.8055,298.1425 Q984.4608,298.1425 983.776,299.2092 Q983.0912,300.2758 983.0912,302.3759 Q983.0912,304.4677 983.776,305.5344 Q984.4608,306.601 985.8055,306.601 Q986.4364,306.601 987.0299,306.3312 Q987.6234,306.0615 988.2543,305.4804 Z " fill="#000000"/><text fill="#000000" font-family="Verdana" font-size="14" lengthAdjust="spacing" textLength="47.4072" x="1003.2811" y="307.6279">Person</text><line style="stroke:#2688D4;stroke-width:1;" x1="943.62" x2="1082.8495" y1="316.06" y2="316.06"/><ellipse cx="953.62" cy="330.0673" fill="transparent" rx="3" ry="3" style="stroke:#000000;stroke-width:1;"/><text fill="#000000" font-family="Verdana" font-size="14" lengthAdjust="spacing" textLength="84.6426" x="960.62" y="334.1352">label: string</text><ellipse cx="953.62" cy="347.082" fill="transparent" rx="3" ry="3" style="stroke:#000000;stroke-width:1;"/><text fill="#000000" font-family="Verdana" font-size="14" lengthAdjust="spacing" textLength="117.2295" x="960.62" y="351.1498">comment: string</text><line style="stroke:#2688D4;stroke-width:1;" x1="943.62" x2="1082.8495" y1="358.0893" y2="358.0893"/></g><!--class Contact--><g id="elem_Contact"><rect codeLine="22" fill="#FFFFFF" height="78.0293" id="Contact" rx="2.5" ry="2.5" style="stroke:#2688D4;stroke-width:1;" width="165.4355" x="930.52" y="150.03"/><ellipse cx="982.5542" cy="164.03" fill="#FFFFFF" rx="9" ry="9" style="stroke:#000000;stroke-width:1;"/><path d="M985.0273,170.1731 Q984.4463,170.4719 983.8071,170.6213 Q983.1679,170.7707 982.4624,170.7707 Q979.9555,170.7707 978.6357,169.1189 Q977.3159,167.467 977.3159,164.3459 Q977.3159,161.2165 978.6357,159.5647 Q979.9555,157.9128 982.4624,157.9128 Q983.1679,157.9128 983.8154,158.0622 Q984.4629,158.2116 985.0273,158.5105 L985.0273,161.2331 Q984.3965,160.6521 983.803,160.3823 Q983.2095,160.1125 982.5786,160.1125 Q981.2339,160.1125 980.5491,161.1792 Q979.8642,162.2458 979.8642,164.3459 Q979.8642,166.4377 980.5491,167.5044 Q981.2339,168.571 982.5786,168.571 Q983.2095,168.571 983.803,168.3012 Q984.3965,168.0315 985.0273,167.4504 Z " fill="#000000"/><text fill="#000000" font-family="Verdana" font-size="14" lengthAdjust="spacing" textLength="53.8672" x="1000.0542" y="169.5979">Contact</text><line style="stroke:#2688D4;stroke-width:1;" x1="931.52" x2="1094.9555" y1="178.03" y2="178.03"/><ellipse cx="941.52" cy="192.0373" fill="transparent" rx="3" ry="3" style="stroke:#000000;stroke-width:1;"/><text fill="#000000" font-family="Verdana" font-size="14" lengthAdjust="spacing" textLength="141.4355" x="948.52" y="196.1052">contactEmail: string</text><ellipse cx="941.52" cy="209.052" fill="transparent" rx="3" ry="3" style="stroke:#000000;stroke-width:1;"/><text fill="#000000" font-family="Verdana" font-size="14" lengthAdjust="spacing" textLength="135.9053" x="948.52" y="213.1198">linkedInURL: string</text><line style="stroke:#2688D4;stroke-width:1;" x1="931.52" x2="1094.9555" y1="220.0593" y2="220.0593"/></g><!--class NetworkingDegree--><g id="elem_NetworkingDegree"><rect codeLine="27" fill="#FFFFFF" height="78.0293" id="NetworkingDegree" rx="2.5" ry="2.5" style="stroke:#2688D4;stroke-width:1;" width="158.4707" x="12" y="288.06"/><ellipse cx="25" cy="302.06" fill="#FFFFFF" rx="9" ry="9" style="stroke:#000000;stroke-width:1;"/><path d="M27.4731,308.2031 Q26.8921,308.5019 26.2529,308.6513 Q25.6138,308.8007 24.9082,308.8007 Q22.4014,308.8007 21.0815,307.1489 Q19.7617,305.497 19.7617,302.3759 Q19.7617,299.2465 21.0815,297.5947 Q22.4014,295.9428 24.9082,295.9428 Q25.6138,295.9428 26.2612,296.0922 Q26.9087,296.2416 27.4731,296.5405 L27.4731,299.2631 Q26.8423,298.6821 26.2488,298.4123 Q25.6553,298.1425 25.0244,298.1425 Q23.6797,298.1425 22.9949,299.2092 Q22.3101,300.2758 22.3101,302.3759 Q22.3101,304.4677 22.9949,305.5344 Q23.6797,306.601 25.0244,306.601 Q25.6553,306.601 26.2488,306.3312 Q26.8423,306.0615 27.4731,305.4804 Z " fill="#000000"/><text fill="#000000" font-family="Verdana" font-size="14" lengthAdjust="spacing" textLength="130.4707" x="37" y="307.6279">NetworkingDegree</text><line style="stroke:#2688D4;stroke-width:1;" x1="13" x2="169.4707" y1="316.06" y2="316.06"/><ellipse cx="23" cy="330.0673" fill="transparent" rx="3" ry="3" style="stroke:#000000;stroke-width:1;"/><text fill="#000000" font-family="Verdana" font-size="14" lengthAdjust="spacing" textLength="84.6426" x="30" y="334.1352">label: string</text><ellipse cx="23" cy="347.082" fill="transparent" rx="3" ry="3" style="stroke:#000000;stroke-width:1;"/><text fill="#000000" font-family="Verdana" font-size="14" lengthAdjust="spacing" textLength="111.5283" x="30" y="351.1498">priority: integer</text><line style="stroke:#2688D4;stroke-width:1;" x1="13" x2="169.4707" y1="358.0893" y2="358.0893"/></g><!--class InteractionPoint--><g id="elem_InteractionPoint"><rect codeLine="32" fill="#FFFFFF" height="61.0146" id="InteractionPoint" rx="2.5" ry="2.5" style="stroke:#2688D4;stroke-width:1;" width="235.8047" x="448.33" y="296.57"/><ellipse cx="506.4037" cy="310.57" fill="#FFFFFF" rx="9" ry="9" style="stroke:#000000;stroke-width:1;"/><path d="M508.8769,316.7131 Q508.2958,317.0119 507.6567,317.1613 Q507.0175,317.3107 506.3119,317.3107 Q503.8051,317.3107 502.4853,315.6589 Q501.1654,314.007 501.1654,310.8859 Q501.1654,307.7565 502.4853,306.1047 Q503.8051,304.4528 506.3119,304.4528 Q507.0175,304.4528 507.665,304.6022 Q508.3124,304.7516 508.8769,305.0505 L508.8769,307.7731 Q508.246,307.1921 507.6525,306.9223 Q507.059,306.6525 506.4281,306.6525 Q505.0834,306.6525 504.3986,307.7192 Q503.7138,308.7858 503.7138,310.8859 Q503.7138,312.9777 504.3986,314.0444 Q505.0834,315.111 506.4281,315.111 Q507.059,315.111 507.6525,314.8412 Q508.246,314.5715 508.8769,313.9904 Z " fill="#000000"/><text fill="#000000" font-family="Verdana" font-size="14" lengthAdjust="spacing" textLength="112.1572" x="523.9037" y="316.1379">InteractionPoint</text><line style="stroke:#2688D4;stroke-width:1;" x1="449.33" x2="683.1347" y1="324.57" y2="324.57"/><ellipse cx="459.33" cy="338.5773" fill="transparent" rx="3" ry="3" style="stroke:#000000;stroke-width:1;"/><text fill="#000000" font-family="Verdana" font-size="14" lengthAdjust="spacing" textLength="211.8047" x="466.33" y="342.6452">lastInteractionDate: dateTime</text><line style="stroke:#2688D4;stroke-width:1;" x1="449.33" x2="683.1347" y1="349.5846" y2="349.5846"/></g><!--class ResearchInsight--><g id="elem_ResearchInsight"><rect codeLine="36" fill="#FFFFFF" height="61.0146" id="ResearchInsight" rx="2.5" ry="2.5" style="stroke:#2688D4;stroke-width:1;" width="141.2305" x="1118.62" y="296.57"/><ellipse cx="1131.62" cy="310.57" fill="#FFFFFF" rx="9" ry="9" style="stroke:#000000;stroke-width:1;"/><path d="M1134.0931,316.7131 Q1133.5121,317.0119 1132.8729,317.1613 Q1132.2338,317.3107 1131.5282,317.3107 Q1129.0214,317.3107 1127.7015,315.6589 Q1126.3817,314.007 1126.3817,310.8859 Q1126.3817,307.7565 1127.7015,306.1047 Q1129.0214,304.4528 1131.5282,304.4528 Q1132.2338,304.4528 1132.8812,304.6022 Q1133.5287,304.7516 1134.0931,305.0505 L1134.0931,307.7731 Q1133.4623,307.1921 1132.8688,306.9223 Q1132.2753,306.6525 1131.6444,306.6525 Q1130.2997,306.6525 1129.6149,307.7192 Q1128.9301,308.7858 1128.9301,310.8859 Q1128.9301,312.9777 1129.6149,314.0444 Q1130.2997,315.111 1131.6444,315.111 Q1132.2753,315.111 1132.8688,314.8412 Q1133.4623,314.5715 1134.0931,313.9904 Z " fill="#000000"/><text fill="#000000" font-family="Verdana" font-size="14" lengthAdjust="spacing" textLength="113.2305" x="1143.62" y="316.1379">ResearchInsight</text><line style="stroke:#2688D4;stroke-width:1;" x1="1119.62" x2="1258.8505" y1="324.57" y2="324.57"/><ellipse cx="1129.62" cy="338.5773" fill="transparent" rx="3" ry="3" style="stroke:#000000;stroke-width:1;"/><text fill="#000000" font-family="Verdana" font-size="14" lengthAdjust="spacing" textLength="104.3711" x="1136.62" y="342.6452">content: string</text><line style="stroke:#2688D4;stroke-width:1;" x1="1119.62" x2="1258.8505" y1="349.5846" y2="349.5846"/></g><!--class CommonGround--><g id="elem_CommonGround"><rect codeLine="40" fill="#FFFFFF" height="61.0146" id="CommonGround" rx="2.5" ry="2.5" style="stroke:#2688D4;stroke-width:1;" width="152.3926" x="1295.04" y="296.57"/><ellipse cx="1312.4323" cy="310.57" fill="#FFFFFF" rx="9" ry="9" style="stroke:#000000;stroke-width:1;"/><path d="M1314.9055,316.7131 Q1314.3244,317.0119 1313.6853,317.1613 Q1313.0461,317.3107 1312.3405,317.3107 Q1309.8337,317.3107 1308.5139,315.6589 Q1307.1941,314.007 1307.1941,310.8859 Q1307.1941,307.7565 1308.5139,306.1047 Q1309.8337,304.4528 1312.3405,304.4528 Q1313.0461,304.4528 1313.6936,304.6022 Q1314.341,304.7516 1314.9055,305.0505 L1314.9055,307.7731 Q1314.2746,307.1921 1313.6811,306.9223 Q1313.0876,306.6525 1312.4567,306.6525 Q1311.112,306.6525 1310.4272,307.7192 Q1309.7424,308.7858 1309.7424,310.8859 Q1309.7424,312.9777 1310.4272,314.0444 Q1311.112,315.111 1312.4567,315.111 Q1313.0876,315.111 1313.6811,314.8412 Q1314.2746,314.5715 1314.9055,313.9904 Z " fill="#000000"/><text fill="#000000" font-family="Verdana" font-size="14" lengthAdjust="spacing" textLength="114.6318" x="1325.4084" y="316.1379">CommonGround</text><line style="stroke:#2688D4;stroke-width:1;" x1="1296.04" x2="1446.4326" y1="324.57" y2="324.57"/><ellipse cx="1306.04" cy="338.5773" fill="transparent" rx="3" ry="3" style="stroke:#000000;stroke-width:1;"/><text fill="#000000" font-family="Verdana" font-size="14" lengthAdjust="spacing" textLength="128.3926" x="1313.04" y="342.6452">description: string</text><line style="stroke:#2688D4;stroke-width:1;" x1="1296.04" x2="1446.4326" y1="349.5846" y2="349.5846"/></g><!--class BusinessNeed--><g id="elem_BusinessNeed"><rect codeLine="44" fill="#FFFFFF" height="78.0293" id="BusinessNeed" rx="2.5" ry="2.5" style="stroke:#2688D4;stroke-width:1;" width="181.1514" x="1669.66" y="150.03"/><ellipse cx="1707.8582" cy="164.03" fill="#FFFFFF" rx="9" ry="9" style="stroke:#000000;stroke-width:1;"/><path d="M1710.3314,170.1731 Q1709.7503,170.4719 1709.1112,170.6213 Q1708.472,170.7707 1707.7664,170.7707 Q1705.2596,170.7707 1703.9398,169.1189 Q1702.62,167.467 1702.62,164.3459 Q1702.62,161.2165 1703.9398,159.5647 Q1705.2596,157.9128 1707.7664,157.9128 Q1708.472,157.9128 1709.1195,158.0622 Q1709.7669,158.2116 1710.3314,158.5105 L1710.3314,161.2331 Q1709.7005,160.6521 1709.107,160.3823 Q1708.5135,160.1125 1707.8827,160.1125 Q1706.5379,160.1125 1705.8531,161.1792 Q1705.1683,162.2458 1705.1683,164.3459 Q1705.1683,166.4377 1705.8531,167.5044 Q1706.5379,168.571 1707.8827,168.571 Q1708.5135,168.571 1709.107,168.3012 Q1709.7005,168.0315 1710.3314,167.4504 Z " fill="#000000"/><text fill="#000000" font-family="Verdana" font-size="14" lengthAdjust="spacing" textLength="97.2549" x="1725.3582" y="169.5979">BusinessNeed</text><line style="stroke:#2688D4;stroke-width:1;" x1="1670.66" x2="1849.8114" y1="178.03" y2="178.03"/><ellipse cx="1680.66" cy="192.0373" fill="transparent" rx="3" ry="3" style="stroke:#000000;stroke-width:1;"/><text fill="#000000" font-family="Verdana" font-size="14" lengthAdjust="spacing" textLength="89.2227" x="1687.66" y="196.1052">value: string</text><ellipse cx="1680.66" cy="209.052" fill="transparent" rx="3" ry="3" style="stroke:#000000;stroke-width:1;"/><text fill="#000000" font-family="Verdana" font-size="14" lengthAdjust="spacing" textLength="157.1514" x="1687.66" y="213.1198">priority: integer [1..5]</text><line style="stroke:#2688D4;stroke-width:1;" x1="1670.66" x2="1849.8114" y1="220.0593" y2="220.0593"/></g><!--class Context--><g id="elem_Context"><rect codeLine="49" fill="#FFFFFF" height="61.0146" id="Context" rx="2.5" ry="2.5" style="stroke:#2688D4;stroke-width:1;" width="152.3926" x="1699.04" y="296.57"/><ellipse cx="1744.0913" cy="310.57" fill="#FFFFFF" rx="9" ry="9" style="stroke:#000000;stroke-width:1;"/><path d="M1746.5644,316.7131 Q1745.9834,317.0119 1745.3442,317.1613 Q1744.705,317.3107 1743.9995,317.3107 Q1741.4926,317.3107 1740.1728,315.6589 Q1738.853,314.007 1738.853,310.8859 Q1738.853,307.7565 1740.1728,306.1047 Q1741.4926,304.4528 1743.9995,304.4528 Q1744.705,304.4528 1745.3525,304.6022 Q1746,304.7516 1746.5644,305.0505 L1746.5644,307.7731 Q1745.9336,307.1921 1745.34,306.9223 Q1744.7465,306.6525 1744.1157,306.6525 Q1742.771,306.6525 1742.0861,307.7192 Q1741.4013,308.7858 1741.4013,310.8859 Q1741.4013,312.9777 1742.0861,314.0444 Q1742.771,315.111 1744.1157,315.111 Q1744.7465,315.111 1745.34,314.8412 Q1745.9336,314.5715 1746.5644,313.9904 Z " fill="#000000"/><text fill="#000000" font-family="Verdana" font-size="14" lengthAdjust="spacing" textLength="54.79" x="1761.5913" y="316.1379">Context</text><line style="stroke:#2688D4;stroke-width:1;" x1="1700.04" x2="1850.4326" y1="324.57" y2="324.57"/><ellipse cx="1710.04" cy="338.5773" fill="transparent" rx="3" ry="3" style="stroke:#000000;stroke-width:1;"/><text fill="#000000" font-family="Verdana" font-size="14" lengthAdjust="spacing" textLength="128.3926" x="1717.04" y="342.6452">description: string</text><line style="stroke:#2688D4;stroke-width:1;" x1="1700.04" x2="1850.4326" y1="349.5846" y2="349.5846"/></g><!--class Constraint--><g id="elem_Constraint"><rect codeLine="53" fill="#FFFFFF" height="61.0146" id="Constraint" rx="2.5" ry="2.5" style="stroke:#2688D4;stroke-width:1;" width="152.3926" x="1886.04" y="296.57"/><ellipse cx="1922.3723" cy="310.57" fill="#FFFFFF" rx="9" ry="9" style="stroke:#000000;stroke-width:1;"/><path d="M1924.8455,316.7131 Q1924.2644,317.0119 1923.6253,317.1613 Q1922.9861,317.3107 1922.2805,317.3107 Q1919.7737,317.3107 1918.4539,315.6589 Q1917.134,314.007 1917.134,310.8859 Q1917.134,307.7565 1918.4539,306.1047 Q1919.7737,304.4528 1922.2805,304.4528 Q1922.9861,304.4528 1923.6336,304.6022 Q1924.281,304.7516 1924.8455,305.0505 L1924.8455,307.7731 Q1924.2146,307.1921 1923.6211,306.9223 Q1923.0276,306.6525 1922.3967,306.6525 Q1921.052,306.6525 1920.3672,307.7192 Q1919.6824,308.7858 1919.6824,310.8859 Q1919.6824,312.9777 1920.3672,314.0444 Q1921.052,315.111 1922.3967,315.111 Q1923.0276,315.111 1923.6211,314.8412 Q1924.2146,314.5715 1924.8455,313.9904 Z " fill="#000000"/><text fill="#000000" font-family="Verdana" font-size="14" lengthAdjust="spacing" textLength="72.543" x="1939.5573" y="316.1379">Constraint</text><line style="stroke:#2688D4;stroke-width:1;" x1="1887.04" x2="2037.4326" y1="324.57" y2="324.57"/><ellipse cx="1897.04" cy="338.5773" fill="transparent" rx="3" ry="3" style="stroke:#000000;stroke-width:1;"/><text fill="#000000" font-family="Verdana" font-size="14" lengthAdjust="spacing" textLength="128.3926" x="1904.04" y="342.6452">description: string</text><line style="stroke:#2688D4;stroke-width:1;" x1="1887.04" x2="2037.4326" y1="349.5846" y2="349.5846"/></g><!--class NetworkingStrategy--><g id="elem_NetworkingStrategy"><rect codeLine="57" fill="#FFFFFF" height="61.0146" id="NetworkingStrategy" rx="2.5" ry="2.5" style="stroke:#2688D4;stroke-width:1;" width="168.3008" x="1581.08" y="20.51"/><ellipse cx="1594.08" cy="34.51" fill="#FFFFFF" rx="9" ry="9" style="stroke:#000000;stroke-width:1;"/><path d="M1596.5531,40.6531 Q1595.9721,40.9519 1595.3329,41.1013 Q1594.6938,41.2507 1593.9882,41.2507 Q1591.4814,41.2507 1590.1615,39.5989 Q1588.8417,37.947 1588.8417,34.8259 Q1588.8417,31.6965 1590.1615,30.0447 Q1591.4814,28.3928 1593.9882,28.3928 Q1594.6938,28.3928 1595.3412,28.5422 Q1595.9887,28.6916 1596.5531,28.9905 L1596.5531,31.7131 Q1595.9223,31.1321 1595.3288,30.8623 Q1594.7353,30.5925 1594.1044,30.5925 Q1592.7597,30.5925 1592.0749,31.6592 Q1591.3901,32.7258 1591.3901,34.8259 Q1591.3901,36.9177 1592.0749,37.9844 Q1592.7597,39.051 1594.1044,39.051 Q1594.7353,39.051 1595.3288,38.7812 Q1595.9223,38.5115 1596.5531,37.9304 Z " fill="#000000"/><text fill="#000000" font-family="Verdana" font-size="14" lengthAdjust="spacing" textLength="140.3008" x="1606.08" y="40.0779">NetworkingStrategy</text><line style="stroke:#2688D4;stroke-width:1;" x1="1582.08" x2="1748.3808" y1="48.51" y2="48.51"/><ellipse cx="1592.08" cy="62.5173" fill="transparent" rx="3" ry="3" style="stroke:#000000;stroke-width:1;"/><text fill="#000000" font-family="Verdana" font-size="14" lengthAdjust="spacing" textLength="128.3926" x="1599.08" y="66.5852">description: string</text><line style="stroke:#2688D4;stroke-width:1;" x1="1582.08" x2="1748.3808" y1="73.5246" y2="73.5246"/></g><!--class ContactPlan--><g id="elem_ContactPlan"><rect codeLine="61" fill="#FFFFFF" height="61.0146" id="ContactPlan" rx="2.5" ry="2.5" style="stroke:#2688D4;stroke-width:1;" width="152.3926" x="937.04" y="20.51"/><ellipse cx="968.4781" cy="34.51" fill="#FFFFFF" rx="9" ry="9" style="stroke:#000000;stroke-width:1;"/><path d="M970.9513,40.6531 Q970.3702,40.9519 969.7311,41.1013 Q969.0919,41.2507 968.3863,41.2507 Q965.8795,41.2507 964.5597,39.5989 Q963.2399,37.947 963.2399,34.8259 Q963.2399,31.6965 964.5597,30.0447 Q965.8795,28.3928 968.3863,28.3928 Q969.0919,28.3928 969.7394,28.5422 Q970.3868,28.6916 970.9513,28.9905 L970.9513,31.7131 Q970.3204,31.1321 969.7269,30.8623 Q969.1334,30.5925 968.5025,30.5925 Q967.1578,30.5925 966.473,31.6592 Q965.7882,32.7258 965.7882,34.8259 Q965.7882,36.9177 966.473,37.9844 Q967.1578,39.051 968.5025,39.051 Q969.1334,39.051 969.7269,38.7812 Q970.3204,38.5115 970.9513,37.9304 Z " fill="#000000"/><text fill="#000000" font-family="Verdana" font-size="14" lengthAdjust="spacing" textLength="83.4189" x="984.5755" y="40.0779">ContactPlan</text><line style="stroke:#2688D4;stroke-width:1;" x1="938.04" x2="1088.4326" y1="48.51" y2="48.51"/><ellipse cx="948.04" cy="62.5173" fill="transparent" rx="3" ry="3" style="stroke:#000000;stroke-width:1;"/><text fill="#000000" font-family="Verdana" font-size="14" lengthAdjust="spacing" textLength="128.3926" x="955.04" y="66.5852">description: string</text><line style="stroke:#2688D4;stroke-width:1;" x1="938.04" x2="1088.4326" y1="73.5246" y2="73.5246"/></g><!--class Conversation--><g id="elem_Conversation"><rect codeLine="65" fill="#FFFFFF" height="78.0293" id="Conversation" rx="2.5" ry="2.5" style="stroke:#2688D4;stroke-width:1;" width="175.5664" x="1862.45" y="12"/><ellipse cx="1900.409" cy="26" fill="#FFFFFF" rx="9" ry="9" style="stroke:#000000;stroke-width:1;"/><path d="M1902.8821,32.1431 Q1902.3011,32.4419 1901.6619,32.5913 Q1901.0228,32.7407 1900.3172,32.7407 Q1897.8104,32.7407 1896.4905,31.0889 Q1895.1707,29.437 1895.1707,26.3159 Q1895.1707,23.1865 1896.4905,21.5347 Q1897.8104,19.8828 1900.3172,19.8828 Q1901.0228,19.8828 1901.6702,20.0322 Q1902.3177,20.1816 1902.8821,20.4805 L1902.8821,23.2031 Q1902.2513,22.6221 1901.6578,22.3523 Q1901.0643,22.0825 1900.4334,22.0825 Q1899.0887,22.0825 1898.4039,23.1492 Q1897.719,24.2158 1897.719,26.3159 Q1897.719,28.4077 1898.4039,29.4744 Q1899.0887,30.541 1900.4334,30.541 Q1901.0643,30.541 1901.6578,30.2712 Q1902.2513,30.0015 1902.8821,29.4204 Z " fill="#000000"/><text fill="#000000" font-family="Verdana" font-size="14" lengthAdjust="spacing" textLength="92.1484" x="1917.909" y="31.5679">Conversation</text><line style="stroke:#2688D4;stroke-width:1;" x1="1863.45" x2="2037.0164" y1="40" y2="40"/><ellipse cx="1873.45" cy="54.0073" fill="transparent" rx="3" ry="3" style="stroke:#000000;stroke-width:1;"/><text fill="#000000" font-family="Verdana" font-size="14" lengthAdjust="spacing" textLength="151.5664" x="1880.45" y="58.0752">timestamp: dateTime</text><ellipse cx="1873.45" cy="71.022" fill="transparent" rx="3" ry="3" style="stroke:#000000;stroke-width:1;"/><text fill="#000000" font-family="Verdana" font-size="14" lengthAdjust="spacing" textLength="133.8887" x="1880.45" y="75.0898">participants: string</text><line style="stroke:#2688D4;stroke-width:1;" x1="1863.45" x2="2037.0164" y1="82.0293" y2="82.0293"/></g><!--class Message--><g id="elem_Message"><rect codeLine="70" fill="#FFFFFF" height="61.0146" id="Message" rx="2.5" ry="2.5" style="stroke:#2688D4;stroke-width:1;" width="128.3711" x="1886.05" y="158.54"/><ellipse cx="1917.1282" cy="172.54" fill="#FFFFFF" rx="9" ry="9" style="stroke:#000000;stroke-width:1;"/><path d="M1919.6014,178.6831 Q1919.0203,178.9819 1918.3812,179.1313 Q1917.742,179.2807 1917.0364,179.2807 Q1914.5296,179.2807 1913.2098,177.6289 Q1911.8899,175.977 1911.8899,172.8559 Q1911.8899,169.7265 1913.2098,168.0747 Q1914.5296,166.4228 1917.0364,166.4228 Q1917.742,166.4228 1918.3895,166.5722 Q1919.0369,166.7216 1919.6014,167.0205 L1919.6014,169.7431 Q1918.9705,169.1621 1918.377,168.8923 Q1917.7835,168.6225 1917.1526,168.6225 Q1915.8079,168.6225 1915.1231,169.6892 Q1914.4383,170.7558 1914.4383,172.8559 Q1914.4383,174.9477 1915.1231,176.0144 Q1915.8079,177.081 1917.1526,177.081 Q1917.7835,177.081 1918.377,176.8112 Q1918.9705,176.5415 1919.6014,175.9604 Z " fill="#000000"/><text fill="#000000" font-family="Verdana" font-size="14" lengthAdjust="spacing" textLength="60.1973" x="1933.1456" y="178.1079">Message</text><line style="stroke:#2688D4;stroke-width:1;" x1="1887.05" x2="2013.4211" y1="186.54" y2="186.54"/><ellipse cx="1897.05" cy="200.5473" fill="transparent" rx="3" ry="3" style="stroke:#000000;stroke-width:1;"/><text fill="#000000" font-family="Verdana" font-size="14" lengthAdjust="spacing" textLength="104.3711" x="1904.05" y="204.6152">content: string</text><line style="stroke:#2688D4;stroke-width:1;" x1="1887.05" x2="2013.4211" y1="211.5546" y2="211.5546"/></g><g id="elem_GMN28"><path d="M1131,152.45 L1131,185.05 L1096.16,189.05 L1131,193.05 L1131,225.6473 A0,0 0 0 0 1131,225.6473 L1337.4722,225.6473 A0,0 0 0 0 1337.4722,225.6473 L1337.4722,162.45 L1327.4722,152.45 L1131,152.45 A0,0 0 0 0 1131,152.45 " fill="#FFFFFF" style="stroke:#000000;stroke-width:1;"/><path d="M1327.4722,152.45 L1327.4722,162.45 L1337.4722,162.45 L1327.4722,152.45 " fill="#FFFFFF" style="stroke:#000000;stroke-width:1;"/><text fill="#000000" font-family="Verdana" font-size="13" lengthAdjust="spacing" textLength="154.3623" x="1137" y="170.5198">All contacts must have:</text><text fill="#000000" font-family="Verdana" font-size="13" lengthAdjust="spacing" textLength="130.457" x="1137" y="186.3191">- Valid email format</text><text fill="#000000" font-family="Verdana" font-size="13" lengthAdjust="spacing" textLength="184.063" x="1137" y="202.1185">- LinkedIn URL starting with</text><text fill="#000000" font-family="Verdana" font-size="13" lengthAdjust="spacing" textLength="176.3315" x="1146.1406" y="217.9178">https://www.linkedin.com/</text></g><g id="elem_GMN31"><path d="M205.16,298.38 L205.16,323.08 L170.86,327.08 L205.16,331.08 L205.16,355.7779 A0,0 0 0 0 205.16,355.7779 L413.3016,355.7779 A0,0 0 0 0 413.3016,355.7779 L413.3016,308.38 L403.3016,298.38 L205.16,298.38 A0,0 0 0 0 205.16,298.38 " fill="#FFFFFF" style="stroke:#000000;stroke-width:1;"/><path d="M403.3016,298.38 L403.3016,308.38 L413.3016,308.38 L403.3016,298.38 " fill="#FFFFFF" style="stroke:#000000;stroke-width:1;"/><text fill="#000000" font-family="Verdana" font-size="13" lengthAdjust="spacing" textLength="131.4092" x="211.16" y="316.4498">Predefined degrees:</text><text fill="#000000" font-family="Verdana" font-size="13" lengthAdjust="spacing" textLength="168.0034" x="211.16" y="332.2491">- FirstDegree (priority: 1)</text><text fill="#000000" font-family="Verdana" font-size="13" lengthAdjust="spacing" textLength="187.1416" x="211.16" y="348.0485">- SecondDegree (priority: 2)</text></g><g id="elem_GMN34"><path d="M719.12,306.28 L719.12,323.08 L684.31,327.08 L719.12,331.08 L719.12,347.8786 A0,0 0 0 0 719.12,347.8786 L907.3554,347.8786 A0,0 0 0 0 907.3554,347.8786 L907.3554,316.28 L897.3554,306.28 L719.12,306.28 A0,0 0 0 0 719.12,306.28 " fill="#FFFFFF" style="stroke:#000000;stroke-width:1;"/><path d="M897.3554,306.28 L897.3554,316.28 L907.3554,316.28 L897.3554,306.28 " fill="#FFFFFF" style="stroke:#000000;stroke-width:1;"/><text fill="#000000" font-family="Verdana" font-size="13" lengthAdjust="spacing" textLength="167.2354" x="725.12" y="324.3498">Captures each touchpoint</text><text fill="#000000" font-family="Verdana" font-size="13" lengthAdjust="spacing" textLength="142.7461" x="725.12" y="340.1491">with date and context</text></g><!--link Contact to Person--><g id="link_Contact_Person"><path codeLine="75" d="M1013.24,228.23 C1013.24,246.88 1013.24,251.13 1013.24,269.79 " fill="transparent" id="Contact-to-Person" style="stroke:#2688D4;stroke-width:1;"/><polygon fill="transparent" points="1013.24,287.79,1019.24,269.79,1007.24,269.79,1013.24,287.79" style="stroke:#2688D4;stroke-width:1;"/></g><!--reverse link Contact to NetworkingDegree--><g id="link_Contact_NetworkingDegree"><path codeLine="76" d="M934.55,240.38 C934.55,269.57 934.55,292.31 934.55,292.31 C934.55,292.31 381.17,292.31 170.95,292.31 " fill="transparent" id="Contact-backto-NetworkingDegree" style="stroke:#2688D4;stroke-width:1;"/><polygon fill="#2688D4" points="934.55,228.38,930.55,234.38,934.55,240.38,938.55,234.38,934.55,228.38" style="stroke:#2688D4;stroke-width:1;"/><text fill="#000000" font-family="Verdana" font-size="13" lengthAdjust="spacing" textLength="143.9585" x="440.72" y="289.3798">hasNetworkingDegree</text><text fill="#000000" font-family="Verdana" font-size="13" lengthAdjust="spacing" textLength="8.2646" x="914.4247" y="248.3875">1</text><text fill="#000000" font-family="Verdana" font-size="13" lengthAdjust="spacing" textLength="8.2646" x="178.4176" y="286.6512">1</text></g><!--reverse link Contact to InteractionPoint--><g id="link_Contact_InteractionPoint"><path codeLine="77" d="M938.59,240.35 C938.59,272.76 938.59,301.42 938.59,301.42 C938.59,301.42 793.59,301.42 684.56,301.42 " fill="transparent" id="Contact-backto-InteractionPoint" style="stroke:#2688D4;stroke-width:1;"/><polygon fill="transparent" points="938.59,228.35,934.59,234.35,938.59,240.35,942.59,234.35,938.59,228.35" style="stroke:#2688D4;stroke-width:1;"/><text fill="#000000" font-family="Verdana" font-size="13" lengthAdjust="spacing" textLength="94.3071" x="753.11" y="298.4898">hasInteraction</text><text fill="#000000" font-family="Verdana" font-size="13" lengthAdjust="spacing" textLength="8.2646" x="926.9109" y="249.2382">1</text><text fill="#000000" font-family="Verdana" font-size="13" lengthAdjust="spacing" textLength="8.2646" x="692.0224" y="297.4937">*</text></g><!--reverse link Contact to ResearchInsight--><g id="link_Contact_ResearchInsight"><path codeLine="78" d="M1091.92,240.23 C1091.92,281.04 1091.92,327.08 1091.92,327.08 C1091.92,327.08 1103.29,327.08 1118.25,327.08 " fill="transparent" id="Contact-backto-ResearchInsight" style="stroke:#2688D4;stroke-width:1;"/><polygon fill="transparent" points="1091.92,228.23,1087.92,234.23,1091.92,240.23,1095.92,234.23,1091.92,228.23" style="stroke:#2688D4;stroke-width:1;"/><text fill="#000000" font-family="Verdana" font-size="13" lengthAdjust="spacing" textLength="127.9497" x="1092.92" y="287.8898">hasResearchInsight</text><text fill="#000000" font-family="Verdana" font-size="13" lengthAdjust="spacing" textLength="8.2646" x="1104.0834" y="248.2154">1</text><text fill="#000000" font-family="Verdana" font-size="13" lengthAdjust="spacing" textLength="8.2646" x="1102.5308" y="324.4179">*</text></g><!--link Contact to CommonGround--><g id="link_Contact_CommonGround"><path codeLine="79" d="M1087.88,228.39 C1087.88,243.89 1087.88,258.06 1087.88,258.06 C1087.88,258.06 1316.26,258.06 1316.26,258.06 C1316.26,258.06 1316.26,277.83 1316.26,296.2 " fill="transparent" id="Contact-CommonGround" style="stroke:#2688D4;stroke-width:1;"/><text fill="#000000" font-family="Verdana" font-size="13" lengthAdjust="spacing" textLength="149.3159" x="1207.31" y="255.1298">sharesCommonGround</text><text fill="#000000" font-family="Verdana" font-size="13" lengthAdjust="spacing" textLength="8.2646" x="1091.1597" y="248.9895">*</text><text fill="#000000" font-family="Verdana" font-size="13" lengthAdjust="spacing" textLength="8.2646" x="1295.3879" y="285.9622">*</text></g><!--link BusinessNeed to Context--><g id="link_BusinessNeed_Context"><path codeLine="80" d="M1774.93,228.23 C1774.93,249.75 1774.93,276.06 1774.93,296.13 " fill="transparent" id="BusinessNeed-Context" style="stroke:#2688D4;stroke-width:1;"/><text fill="#000000" font-family="Verdana" font-size="13" lengthAdjust="spacing" textLength="73.6836" x="1700.93" y="259.2498">hasContext</text><text fill="#000000" font-family="Verdana" font-size="13" lengthAdjust="spacing" textLength="8.2646" x="1768.7232" y="249.0983">*</text><text fill="#000000" font-family="Verdana" font-size="13" lengthAdjust="spacing" textLength="8.2646" x="1766.0169" y="285.8769">1</text></g><!--link BusinessNeed to Constraint--><g id="link_BusinessNeed_Constraint"><path codeLine="81" d="M1851.06,223.81 C1899.91,223.81 1950.24,223.81 1950.24,223.81 C1950.24,223.81 1950.24,265.67 1950.24,296.09 " fill="transparent" id="BusinessNeed-Constraint" style="stroke:#2688D4;stroke-width:1;"/><text fill="#000000" font-family="Verdana" font-size="13" lengthAdjust="spacing" textLength="90.1685" x="1937.79" y="237.8798">hasConstraint</text><text fill="#000000" font-family="Verdana" font-size="13" lengthAdjust="spacing" textLength="8.2646" x="1858.9236" y="224.1708">*</text><text fill="#000000" font-family="Verdana" font-size="13" lengthAdjust="spacing" textLength="8.2646" x="1938.7698" y="285.8281">*</text></g><!--link NetworkingStrategy to BusinessNeed--><g id="link_NetworkingStrategy_BusinessNeed"><path codeLine="82" d="M1709.52,81.99 C1709.52,102.02 1709.52,128.27 1709.52,149.76 " fill="transparent" id="NetworkingStrategy-BusinessNeed" style="stroke:#2688D4;stroke-width:1;"/><text fill="#000000" font-family="Verdana" font-size="13" lengthAdjust="spacing" textLength="52.6982" x="1656.52" y="112.9498">satisfies</text><text fill="#000000" font-family="Verdana" font-size="13" lengthAdjust="spacing" textLength="8.2646" x="1709.4781" y="102.7128">*</text><text fill="#000000" font-family="Verdana" font-size="13" lengthAdjust="spacing" textLength="8.2646" x="1691.4562" y="139.2776">*</text></g><!--link ContactPlan to Contact--><g id="link_ContactPlan_Contact"><path codeLine="83" d="M1013.24,81.99 C1013.24,102.02 1013.24,128.27 1013.24,149.76 " fill="transparent" id="ContactPlan-Contact" style="stroke:#2688D4;stroke-width:1;"/><text fill="#000000" font-family="Verdana" font-size="13" lengthAdjust="spacing" textLength="89.4639" x="923.24" y="112.9498">targetContact</text><text fill="#000000" font-family="Verdana" font-size="13" lengthAdjust="spacing" textLength="8.2646" x="1004.4793" y="102.7128">1</text><text fill="#000000" font-family="Verdana" font-size="13" lengthAdjust="spacing" textLength="8.2646" x="1004.5273" y="139.2776">1</text></g><!--reverse link Conversation to Message--><g id="link_Conversation_Message"><path codeLine="84" d="M1950.24,102.2 C1950.24,123.72 1950.24,138.03 1950.24,158.1 " fill="transparent" id="Conversation-backto-Message" style="stroke:#2688D4;stroke-width:1;"/><polygon fill="#2688D4" points="1950.24,90.2,1946.24,96.2,1950.24,102.2,1954.24,96.2,1950.24,90.2" style="stroke:#2688D4;stroke-width:1;"/><text fill="#000000" font-family="Verdana" font-size="13" lengthAdjust="spacing" textLength="78.7046" x="1871.24" y="121.2198">hasMessage</text><text fill="#000000" font-family="Verdana" font-size="13" lengthAdjust="spacing" textLength="8.2646" x="1941.6005" y="111.0683">1</text><text fill="#000000" font-family="Verdana" font-size="13" lengthAdjust="spacing" textLength="8.2646" x="1941.3949" y="147.8469">*</text></g><!--link BusinessNeed to AbstractionDimension--><g id="link_BusinessNeed_AbstractionDimension"><path codeLine="87" d="M1684.35,228.38 C1684.35,257.57 1684.35,292.31 1684.35,292.31 C1684.35,292.31 1694.16,292.31 1682.23,292.31 " fill="transparent" id="BusinessNeed-to-AbstractionDimension" style="stroke:#2688D4;stroke-width:1;"/><polygon fill="transparent" points="1664.23,292.31,1682.23,298.31,1682.23,286.31,1664.23,292.31" style="stroke:#2688D4;stroke-width:1;"/></g><!--link NetworkingStrategy to AbstractionDimension--><g id="link_NetworkingStrategy_AbstractionDimension"><path codeLine="88" d="M1622.5,81.88 C1622.5,132.39 1622.5,214.62 1622.5,270.01 " fill="transparent" id="NetworkingStrategy-to-AbstractionDimension" style="stroke:#2688D4;stroke-width:1;"/><polygon fill="transparent" points="1622.5,288.01,1628.5,270.01,1616.5,270.01,1622.5,288.01" style="stroke:#2688D4;stroke-width:1;"/></g><!--SRC=[dLLBRzD04BxxLmpXK5gKLAa0LJuWjIcWIAMAMXu7n65hJ-nLrxlMxgGXAlntnkkrOyTfgSWXpZo-UNwU7C0DRHI2q2bGZWL6B_m3IYMaZjoTrAMmeW0bDTAcH32MSjCn94eu1myHyETS97UPDIkTpemo5hxdaj1RpgmrwrhvykJTwMdwfWOOcwBjw_z4qG7CZ4MOLQ7HHUBMaHK9XLndGPH6NyW2jUCVeO3NIjoYYe4TfCvgLM8ATg9MoV7hE0kqxl-GCwEfgkUXyVFYXqB8dGWyjJjCv_hhzUKmoXNIsbWUP7Q1cKLyefBIIcCbRMAGcZ13kuqoPqMOniAmTHl5KSTs8GXZIFdx2yzi2xz6Xy8c-Pp7cEMzbXvflIYC_kINt3Ydw18hoohD472-SamTvwuGMy2zK2lyHuVmOpgPlFtP7ph-ecSbPT-A8vrnFEc-tSGDepZzvhbPghqlbD3FzRzdpWdg49Pu6uv4KNQMKmz4M9A9B8KcDmprcISgCdnYNGUyMkLJkLoMBceuEnx_VX-et-f6qn4SZSV-EM1b3BbmkzeUr5JGez6GYXxQqUv5xJBGWtQKMo030gx7HEuy5nPTLndrgDSWfwEMIJvJ4FOx-pGjbHh_84TxQDC1zW9oVRmBjvJORiBJfYgdKrNLOWmaR8OKvAZ7cdPJdA3XW2yh2DNUvpf7VfM4JX2MrXHx3sQ_Nq-AlMvxUdpSETA64AnVeras7J55pvI2S2KT52j7NF8zncmPmpUXP0fO7KzO6bi8ykhBS3g1RoVJkdeRT0PhIRcdV4vKklZuUBrUJ-ehA_M43_PnX4o7gexTQWOK1bXOJ779OqWXzJfNb_HHMaU1_g-sbsbwwAqtoAsaG_F9uQEvTzyCZZCJ9QsOiO0YoO7CAidBOAgQzDV0_oqdWQ1jxBy0]--></g></svg>